<svg width="1200" height="700" viewBox="0 0 1200 700" xmlns="http://www.w3.org/2000/svg">
  <defs>
    <linearGradient id="g9" x1="0" y1="0" x2="1" y2="1">
      <stop offset="0%" stop-color="hsl(297, 78%, 27%)"/>
      <stop offset="52%" stop-color="hsl(41, 68%, 22%)"/>
      <stop offset="100%" stop-color="hsl(3, 58%, 9%)"/>
    </linearGradient>
  </defs>
  <rect width="1200" height="700" fill="url(#g9)"/>
  <g fill="none" stroke="rgba(132,246,255,0.82)">
    <path d="M90 450 C 210 300, 330 580, 450 430 C 560 300, 690 570, 820 420 C 910 320, 1010 510, 1110 380" stroke-width="4"/>
    <path d="M90 520 C 220 370, 350 620, 480 470 C 600 340, 740 610, 860 460 C 960 360, 1040 540, 1110 430" stroke-width="2.5" stroke-opacity="0.55"/>
    <rect x="130" y="140" width="120" height="220" rx="16"/>
    <rect x="300" y="180" width="140" height="260" rx="16"/>
    <rect x="500" y="120" width="160" height="210" rx="16"/>
    <rect x="730" y="170" width="130" height="250" rx="16"/>
    <circle cx="589" cy="419" r="36" fill="rgba(132,246,255,0.24)" stroke-width="0"/>
  </g></svg>
